<svg width="650" height="649" xmlns="http://www.w3.org/2000/svg" xmlns:xlink="http://www.w3.org/1999/xlink" xml:space="preserve" overflow="hidden"><defs><clipPath id="clip0"><rect x="399" y="445" width="650" height="649"/></clipPath></defs><g clip-path="url(#clip0)" transform="translate(-399 -445)"><path d="M399 493.74C399 466.822 420.822 445 447.74 445L1000.26 445C1027.18 445 1049 466.822 1049 493.74L1049 1045.26C1049 1072.18 1027.18 1094 1000.26 1094L447.74 1094C420.822 1094 399 1072.18 399 1045.26Z" fill-rule="evenodd"/><path d="M275.225 0 32.4616 0 32.4612 0 32.4616 0 19.8261 2.54922C8.17526 7.47323 0 19.0011 0 32.4375 0 36.9164 0.908563 41.183 2.55112 45.0636L7.33235 52.1501 10.0025 55.7077 10.0021 55.7077 162.96 259.5 10.0028 463.292 10.0032 463.292 7.32982 466.853 2.55112 473.936C0.908563 477.817 0 482.084 0 486.562 0 499.999 8.17526 511.526 19.8261 516.451L32.4616 519 32.4612 519 32.4616 519 98.0368 519 227.883 346 309.037 454.125 231.067 454.125 182.374 519 357.729 519 420.701 519 426.375 519 436.174 517.023C447.825 512.099 456 500.571 456 487.135 456 482.656 455.092 478.389 453.449 474.508L446.925 464.84 446.394 464.131 292.806 259.5 446.394 54.868 446.923 54.1637 453.449 44.4912C455.092 40.6106 456 36.344 456 31.8651 456 18.4292 447.825 6.90089 436.174 1.97688L426.377 0.000360416 420.7 0.000360416 357.729 0.000360416 227.883 173 146.729 64.8749 226.532 64.8749 275.225 0Z" fill="#FFFFFF" fill-rule="evenodd" transform="matrix(-1 0 0 1 952 510)"/></g></svg>